<?xml version="1.0" encoding="UTF-8"?>
<svg id="Layer_1" data-name="Layer 1" xmlns="http://www.w3.org/2000/svg" viewBox="0 0 240 90">
  <defs>
    <style>
      .cls-1 {
        fill: #fff;
      }

      .cls-2 {
        fill: #f3b919;
      }
    </style>
  </defs>
  <g>
    <path class="cls-2" d="M62.92,71.61l-5.53,5.53c-3.52,3.52-8.14,5.28-12.76,5.28s-9.24-1.76-12.76-5.28l-5.83-5.83h0l-.78-.78-.4-.4h0l-12.36-12.36c-7.03-7.03-7.03-18.48,0-25.51L31.88,12.87c7.03-7.03,18.48-7.03,25.51,0l9.69,9.69-7.89,7.89-9.69-9.69c-1.34-1.34-3.11-2.01-4.87-2.01s-3.53,.67-4.87,2.01l-5.97,5.97-7.89,7.89-5.52,5.52c-2.69,2.69-2.69,7.06,0,9.74l12.36,12.36,1.18,1.18,5.83,5.83c2.69,2.69,7.06,2.69,9.74,0l5.52-5.52,7.89-7.89,5.97-5.97c2.69-2.69,2.69-7.06,0-9.74l-7.01-7.01,7.89-7.89,7.01,7.01c7.03,7.03,7.03,18.48,0,25.51l-5.97,5.97-7.88,7.88Z"/>
    <circle class="cls-2" cx="73.72" cy="74.09" r="5.62"/>
  </g>
  <g>
    <g>
      <path class="cls-1" d="M113.88,47.79h-11.36c-1.47,0-2.82-.22-4.07-.65-1.25-.43-2.32-1.06-3.22-1.89-.9-.83-1.61-1.84-2.12-3.02-.51-1.18-.77-2.53-.77-4.05,0-1.41,.26-2.71,.78-3.89,.52-1.18,1.23-2.2,2.13-3.05,.9-.85,1.96-1.51,3.18-1.97,1.22-.47,2.52-.7,3.92-.7s2.7,.24,3.92,.72c1.22,.48,2.28,1.14,3.18,1.99,.9,.85,1.61,1.86,2.13,3.03,.52,1.17,.78,2.47,.78,3.88,0,.67-.07,1.32-.22,1.96-.15,.64-.38,1.24-.68,1.8-.3,.57-.69,1.07-1.17,1.52s-1.03,.82-1.67,1.1v.05h5.24v3.18Zm-17.24-9.61c0,.81,.15,1.57,.45,2.28,.3,.71,.71,1.32,1.23,1.84,.52,.52,1.13,.93,1.81,1.23,.69,.3,1.43,.45,2.22,.45s1.54-.15,2.22-.45c.69-.3,1.29-.71,1.81-1.23,.52-.52,.93-1.13,1.23-1.84,.3-.71,.45-1.47,.45-2.28s-.15-1.57-.45-2.28c-.3-.71-.71-1.32-1.23-1.84-.52-.52-1.13-.93-1.81-1.23-.69-.3-1.43-.45-2.22-.45s-1.54,.15-2.22,.45c-.69,.3-1.29,.71-1.81,1.23-.52,.52-.93,1.13-1.23,1.84-.3,.71-.45,1.47-.45,2.28Z"/>
      <path class="cls-1" d="M131.73,40.56c0,1.11-.17,2.14-.5,3.07-.34,.94-.83,1.75-1.5,2.44-.66,.69-1.49,1.23-2.48,1.62-.99,.39-2.13,.58-3.42,.58s-2.45-.19-3.44-.58c-.99-.39-1.81-.93-2.48-1.62-.66-.69-1.16-1.5-1.5-2.44-.34-.94-.5-1.96-.5-3.07v-11.52h4.13v11.36c0,.58,.09,1.12,.28,1.62,.19,.49,.45,.92,.78,1.28,.34,.36,.74,.64,1.21,.85,.47,.2,.98,.3,1.52,.3s1.05-.1,1.51-.3c.46-.2,.86-.49,1.19-.85,.33-.36,.6-.79,.78-1.28,.19-.49,.28-1.03,.28-1.62v-11.36h4.13v11.52Z"/>
      <path class="cls-1" d="M141.71,29.04h3.42l8.16,18.75h-4.66l-1.62-3.97h-7.28l-1.56,3.97h-4.56l8.11-18.75Zm1.59,5.46l-2.28,5.83h4.58l-2.3-5.83Z"/>
      <path class="cls-1" d="M155.17,29.04h5.61l7.97,13.03h.05v-13.03h4.13v18.75h-5.4l-8.18-13.35h-.05v13.35h-4.13V29.04Z"/>
      <path class="cls-1" d="M180.38,32.7h-5.35v-3.66h14.83v3.66h-5.35v15.1h-4.13v-15.1Z"/>
      <path class="cls-1" d="M207.77,40.56c0,1.11-.17,2.14-.5,3.07-.34,.94-.83,1.75-1.5,2.44-.66,.69-1.49,1.23-2.48,1.62-.99,.39-2.13,.58-3.42,.58s-2.45-.19-3.44-.58c-.99-.39-1.81-.93-2.48-1.62-.66-.69-1.16-1.5-1.5-2.44-.34-.94-.5-1.96-.5-3.07v-11.52h4.13v11.36c0,.58,.09,1.12,.28,1.62,.19,.49,.45,.92,.78,1.28,.34,.36,.74,.64,1.21,.85,.47,.2,.98,.3,1.52,.3s1.05-.1,1.51-.3c.46-.2,.86-.49,1.19-.85,.33-.36,.6-.79,.78-1.28,.19-.49,.28-1.03,.28-1.62v-11.36h4.13v11.52Z"/>
      <path class="cls-1" d="M211.58,29.04h6.25l4.32,12.24h.05l4.34-12.24h6.22v18.75h-4.13v-14.38h-.05l-4.93,14.38h-3.15l-4.74-14.38h-.05v14.38h-4.13V29.04Z"/>
    </g>
    <g>
      <path class="cls-1" d="M92.34,57.44c0-2.31,1.76-4,4.14-4,1.21,0,2.26,.41,2.97,1.22l-.73,.7c-.6-.64-1.34-.93-2.2-.93-1.76,0-3.07,1.27-3.07,3s1.31,3,3.07,3c.86,0,1.6-.3,2.2-.94l.73,.7c-.71,.8-1.76,1.23-2.98,1.23-2.37,0-4.13-1.69-4.13-4Z"/>
      <path class="cls-1" d="M109.2,59.39h-4.15l-.86,1.95h-1.15l3.54-7.82h1.11l3.55,7.82h-1.17l-.86-1.95Zm-.39-.89l-1.69-3.83-1.69,3.83h3.37Z"/>
      <path class="cls-1" d="M122.05,56.25c0,1.7-1.23,2.73-3.26,2.73h-1.93v2.37h-1.12v-7.82h3.05c2.03,0,3.26,1.03,3.26,2.72Zm-1.12,0c0-1.12-.75-1.75-2.18-1.75h-1.9v3.51h1.9c1.43,0,2.18-.64,2.18-1.75Z"/>
      <path class="cls-1" d="M127.04,53.53h1.12v7.82h-1.12v-7.82Z"/>
      <path class="cls-1" d="M135.41,54.5h-2.68v-.97h6.47v.97h-2.68v6.85h-1.11v-6.85Z"/>
      <path class="cls-1" d="M148.35,59.39h-4.15l-.86,1.95h-1.15l3.54-7.82h1.11l3.55,7.82h-1.17l-.86-1.95Zm-.39-.89l-1.69-3.83-1.69,3.83h3.37Z"/>
      <path class="cls-1" d="M154.9,53.53h1.12v6.85h4.23v.97h-5.35v-7.82Z"/>
      <path class="cls-1" d="M174.93,57.39h1.07v3.05c-.78,.66-1.87,.99-2.96,.99-2.4,0-4.17-1.69-4.17-4s1.76-4,4.19-4c1.24,0,2.29,.41,3,1.21l-.69,.69c-.65-.63-1.38-.9-2.27-.9-1.81,0-3.12,1.26-3.12,3s1.31,3,3.1,3c.66,0,1.27-.15,1.83-.5v-2.55Z"/>
      <path class="cls-1" d="M181.49,53.53h1.12v6.85h4.23v.97h-5.35v-7.82Z"/>
      <path class="cls-1" d="M190.69,57.44c0-2.29,1.76-4,4.17-4s4.14,1.7,4.14,4-1.76,4-4.14,4-4.17-1.71-4.17-4Zm7.19,0c0-1.73-1.3-3-3.03-3s-3.05,1.27-3.05,3,1.3,3,3.05,3,3.03-1.27,3.03-3Z"/>
      <path class="cls-1" d="M210.79,59.24c0,1.34-1.02,2.11-2.99,2.11h-3.73v-7.82h3.51c1.8,0,2.8,.76,2.8,2.02,0,.85-.44,1.44-1.05,1.74,.88,.25,1.46,.9,1.46,1.94Zm-5.61-4.8v2.5h2.29c1.14,0,1.79-.42,1.79-1.25s-.65-1.25-1.79-1.25h-2.29Zm4.48,4.71c0-.9-.67-1.31-1.91-1.31h-2.57v2.6h2.57c1.24,0,1.91-.39,1.91-1.3Z"/>
      <path class="cls-1" d="M220.85,59.39h-4.15l-.86,1.95h-1.15l3.54-7.82h1.11l3.55,7.82h-1.17l-.86-1.95Zm-.39-.89l-1.69-3.83-1.69,3.83h3.37Z"/>
      <path class="cls-1" d="M227.39,53.53h1.12v6.85h4.23v.97h-5.35v-7.82Z"/>
    </g>
  </g>
</svg>